<svg id="21776899-46f3-4dda-b882-79909f1fdfa8" data-name="folder-dropdown" xmlns="http://www.w3.org/2000/svg" viewBox="0 0 24 24"><title>list-view</title><polyline points="7.74 7.76 7.74 3.02 3 3.02 3 7.76 7.74 7.76"/><polyline points="21 7.76 21 3.02 9 3.02 9 7.76 21 7.76"/><polyline points="7.74 14.37 7.74 9.63 3 9.63 3 14.37 7.74 14.37"/><polyline points="21 14.37 21 9.63 9 9.63 9 14.37 21 14.37"/><polyline points="7.74 20.98 7.74 16.24 3 16.24 3 20.98 7.74 20.98"/><polyline points="21 20.98 21 16.24 9 16.24 9 20.98 21 20.98"/></svg>