<svg id="ce9ca7e0-bbd4-4de5-92d2-760aa514027b" data-name="folder-dropdown" xmlns="http://www.w3.org/2000/svg" viewBox="0 0 24 24"><title>grid-view</title><polyline points="7.74 21 7.74 16.26 3 16.26 3 21 7.74 21"/><polyline points="14.37 21 14.37 16.26 9.63 16.26 9.63 21 14.37 21"/><polyline points="21 21 21 16.26 16.26 16.26 16.26 21 21 21"/><polyline points="7.74 14.37 7.74 9.63 3 9.63 3 14.37 7.74 14.37"/><polyline points="14.37 14.37 14.37 9.63 9.63 9.63 9.63 14.37 14.37 14.37"/><polyline points="21 14.37 21 9.63 16.26 9.63 16.26 14.37 21 14.37"/><polyline points="7.74 7.74 7.74 3 3 3 3 7.74 7.74 7.74"/><polyline points="14.37 7.74 14.37 3 9.63 3 9.63 7.74 14.37 7.74"/><polyline points="21 7.74 21 3 16.26 3 16.26 7.74 21 7.74"/></svg>