<svg xmlns="http://www.w3.org/2000/svg" viewBox="0 0 24 24"><title>settings</title><path d="M12,15.87a3.15,3.15,0,1,1,3.15-3.15A3.15,3.15,0,0,1,12,15.87m6.66-3a6.86,6.86,0,0,0,.09-.9,6.86,6.86,0,0,0-.09-.9l1.89-1.44a.44.44,0,0,0,.09-.54L18.84,6a.44.44,0,0,0-.54-.18l-2.25.9a6.54,6.54,0,0,0-1.53-.9l-.27-2.43A.45.45,0,0,0,13.8,3H10.2a.45.45,0,0,0-.45.36L9.39,5.79a6.54,6.54,0,0,0-1.53.9L5.7,5.79A.44.44,0,0,0,5.16,6L3.27,9a.44.44,0,0,0,.09.54l2,1.53a6.86,6.86,0,0,0-.09.9,6.86,6.86,0,0,0,.09.9L3.45,14.34a.44.44,0,0,0-.09.54L5.16,18a.45.45,0,0,0,.54.27L8,17.4a6.35,6.35,0,0,0,1.53.9l.36,2.34a.45.45,0,0,0,.36.36h3.6a.45.45,0,0,0,.45-.36l.36-2.34a6.54,6.54,0,0,0,1.53-.9l2.25.9a.44.44,0,0,0,.54-.18L20.73,15a.44.44,0,0,0-.09-.54Z"/></svg>